<svg width="114" height="75" viewBox="0 0 114 75" fill="none" xmlns="http://www.w3.org/2000/svg">
<g id="icon_watch">
<path id="Path 1" d="M57.4352 72.5024C50.6069 72.5595 43.9151 70.5904 38.2058 66.8443C32.4966 63.0982 28.0265 57.7432 25.3607 51.4566C22.6949 45.1699 21.9531 38.234 23.2293 31.5258C24.5054 24.8176 27.7421 18.6384 32.53 13.7697C37.318 8.90106 43.4421 5.5615 50.1281 4.17338C56.814 2.78526 63.7614 3.41092 70.0918 5.97125C76.4221 8.53157 81.8511 12.9116 85.6921 18.5573C89.5332 24.2031 91.6138 30.8611 91.6709 37.6894C91.7474 46.8458 88.1835 55.6576 81.763 62.1863C75.3426 68.715 66.5916 72.4258 57.4352 72.5024Z" stroke="black" stroke-width="5" stroke-linecap="round" stroke-linejoin="round"/>
<path id="Path 3" d="M30.9456 60.442L12.0414 58.8737C9.58024 58.6721 7.28421 57.5546 5.60696 55.7422C3.92971 53.9297 2.99327 51.5541 2.98265 49.0847L2.8041 27.7289C2.77344 25.2597 3.67003 22.8687 5.31673 21.0285C6.96344 19.1882 9.24047 18.0326 11.698 17.7898L30.5733 15.9056M83.3466 15.5137L102.251 17.082C104.703 17.283 106.992 18.3935 108.668 20.1955C110.344 21.9976 111.286 24.3609 111.309 26.8218L111.489 48.2762C111.519 50.7454 110.623 53.1364 108.976 54.9766C107.329 56.8168 105.052 57.9725 102.595 58.2153L83.7195 60.1159" stroke="black" stroke-width="5" stroke-linecap="round" stroke-linejoin="round"/>
</g>
</svg>
